<svg width="73" height="59" viewBox="0 0 73 59" fill="none" xmlns="http://www.w3.org/2000/svg">
<path d="M68 8.72595C64.0175 7.06095 58.307 5.26545 52.754 4.70745C46.769 4.10445 41.693 4.99095 38.75 8.09145V51.9484C42.9575 49.5634 48.29 49.235 53.2085 49.7299C58.5185 50.27 63.8735 51.8045 68 53.3795V8.72595ZM34.25 8.09145C31.307 4.99095 26.231 4.10445 20.246 4.70745C14.693 5.26545 8.9825 7.06095 5 8.72595V53.3795C9.131 51.8045 14.4815 50.2655 19.7915 49.7345C24.7145 49.235 30.0425 49.5589 34.25 51.9484V8.09145ZM36.5 4.02345C40.9325 0.211952 47.3585 -0.355048 53.2085 0.229952C60.0215 0.918452 66.8975 3.25395 71.1815 5.20245C71.5746 5.38123 71.9079 5.66934 72.1417 6.0324C72.3755 6.39546 72.4999 6.81813 72.5 7.24995V56.75C72.4999 57.1264 72.4053 57.4968 72.225 57.8273C72.0446 58.1577 71.7842 58.4376 71.4677 58.6414C71.1511 58.8451 70.7884 58.9662 70.413 58.9934C70.0375 59.0207 69.6612 58.9533 69.3185 58.7975C65.3495 56.9975 58.955 54.833 52.7585 54.2075C46.418 53.5685 41.1035 54.599 38.255 58.154C38.0442 58.4167 37.777 58.6288 37.4733 58.7746C37.1695 58.9203 36.8369 58.9959 36.5 58.9959C36.1631 58.9959 35.8305 58.9203 35.5267 58.7746C35.223 58.6288 34.9558 58.4167 34.745 58.154C31.8965 54.599 26.582 53.5685 20.246 54.2075C14.045 54.833 7.646 56.9975 3.6815 58.7975C3.33881 58.9533 2.9625 59.0207 2.58702 58.9934C2.21155 58.9662 1.84892 58.8451 1.53235 58.6414C1.21578 58.4376 0.955383 58.1577 0.775024 57.8273C0.594666 57.4968 0.500107 57.1264 0.5 56.75V7.24995C0.500122 6.81813 0.624504 6.39546 0.858299 6.0324C1.09209 5.66934 1.42542 5.38123 1.8185 5.20245C6.1025 3.25395 12.9785 0.918452 19.7915 0.229952C25.6415 -0.359548 32.0675 0.211952 36.5 4.02345Z" fill="#023047"/>
</svg>
