<svg width="73" height="56" viewBox="0 0 73 56" fill="none" xmlns="http://www.w3.org/2000/svg">
<path d="M49.0998 38.5C49.3687 38.5 49.6376 38.5383 49.8941 38.6192C51.3521 39.0797 52.8854 39.375 54.4998 39.375C56.1142 39.375 57.6476 39.0797 59.1067 38.6192C59.3632 38.5383 59.6309 38.5 59.8998 38.5C66.8816 38.5 72.5369 44.0212 72.4998 50.8178C72.4841 53.69 70.0552 56 67.0998 56H41.8998C38.9444 56 36.5156 53.69 36.4998 50.8178C36.4627 44.0212 42.1181 38.5 49.0998 38.5ZM54.4998 35C48.5351 35 43.6998 30.2991 43.6998 24.5C43.6998 18.7009 48.5351 14 54.4998 14C60.4646 14 65.2998 18.7009 65.2998 24.5C65.2998 30.2991 60.4646 35 54.4998 35ZM5.89982 0H49.0998C52.0777 0 54.4998 2.43359 54.4998 5.42391V10.5C51.8651 10.5 49.4261 11.2416 47.2998 12.4469V7H7.69982V38.5H14.8998V31.5H29.2998V38.5H37.8768C35.7281 40.3255 34.1508 42.7361 33.4117 45.5H5.89982C2.92194 45.5 0.499817 43.0664 0.499817 40.0761V5.42391C0.499817 2.43359 2.92194 0 5.89982 0Z" fill="#023047"/>
</svg>
