<svg width="73" height="73" viewBox="0 0 73 73" fill="none" xmlns="http://www.w3.org/2000/svg">
<path d="M20.5311 9.125L23.8267 20.8202L30.4165 24.2619L23.8267 27.702L20.5311 38.0208L17.2354 27.7005L10.6457 24.2603L17.2354 20.8217L20.5311 9.125Z" fill="#023047"/>
<path d="M42.5832 18.25L44.104 24.3333L48.6665 25.8542L44.104 27.375L42.5832 33.4583L41.0623 27.375L36.4998 25.8542L41.0623 24.3333L42.5832 18.25Z" fill="#023047"/>
<path d="M63.875 45.625C63.875 45.2216 63.7148 44.8348 63.4296 44.5496C63.1443 44.2644 62.7575 44.1041 62.3542 44.1041H57.7917C57.3883 44.1041 57.0015 44.2644 56.7163 44.5496C56.4311 44.8348 56.2708 45.2216 56.2708 45.625V62.348C56.2708 62.7514 56.4311 63.1382 56.7163 63.4234C57.0015 63.7086 57.3883 63.8689 57.7917 63.8689H62.3542C62.7575 63.8689 63.1443 63.7086 63.4296 63.4234C63.7148 63.1382 63.875 62.7514 63.875 62.348V45.6265V45.625Z" fill="#023047"/>
<path d="M46.0735 44.3916C44.6561 43.7453 41.1916 44.3916 41.1916 44.3916L31.1146 46.6516C31.1146 46.6516 28.5945 47.4592 26.2327 47.4592C23.8708 47.4592 25.2837 50.6925 26.8638 51.8209C28.4425 52.9494 29.5922 52.8885 29.5922 52.8885L37.7287 52.7897C37.7287 52.7897 30.6416 54.0824 27.9649 54.2436C26.6099 54.3257 24.2845 53.3706 21.6839 52.3045C19.1517 51.2643 16.361 50.1191 13.952 49.7206C9.07009 48.9146 8.28229 53.2748 9.85788 54.89C11.4319 56.5051 24.029 62.6416 26.2327 63.4492C27.9604 64.0819 30.0485 63.872 32.4042 63.6347C33.0567 63.5693 33.7304 63.5009 34.4209 63.4492C37.1736 63.2408 39.2754 62.5717 41.3559 61.9101C43.5884 61.2014 45.7952 60.5003 48.7502 60.3802C49.7417 60.3406 52.0625 60.4638 53.229 60.5322V47.0546C51.2124 46.3368 47.1289 44.8707 46.0735 44.3901V44.3916Z" fill="#023047"/>
</svg>
